# xmcd
#
# Track frame offsets:
#	150
#	19703
#	38406
#	61311
#	76881
#	95668
#	121485
#	135884
#	158822
#	181653
#	199111
#
# Disc length: 2991
#
# Revision: 1
# Processed by: cddbd v1.5.1PL0 Copyright (c) Steve Scherf et al.
# Submitted via: EasyCDDAExtractor 4.5.0.2
# Normalized: r0:TRMNUM
#
DISCID=7d0bad0b
DTITLE=Giorgos Doukas - Dwdeka Feggaria
DYEAR=1997
DGENRE=
TTITLE0=Dwdeka feggaria
TTITLE1=Allazw
TTITLE2=Opou ki an pas
TTITLE3=Pesto dynata
TTITLE4=Zhleia mou
TTITLE5=Erwta mou
TTITLE6=Antexw
TTITLE7=3hmerwse agapi
TTITLE8=Kati apo to parel8on(Otan kaneis erwta)
TTITLE9=Filika
TTITLE10=A3izei
EXTD=KLcanislupus
EXTT0=
EXTT1=
EXTT2=
EXTT3=
EXTT4=
EXTT5=
EXTT6=
EXTT7=
EXTT8=
EXTT9=
EXTT10=
PLAYORDER=
